<svg width="800" height="275" viewBox="0 0 800 275" fill="none" xmlns="http://www.w3.org/2000/svg">
<path d="M-0.000152588 0H800V275H-0.000152588V0Z" fill="#222831"/>
<path d="M279.85 206.163C279.85 204.73 279.433 203.613 278.6 202.813C277.8 202.013 276.733 201.613 275.4 201.613C274.167 201.613 273.083 201.93 272.15 202.563C271.217 203.196 270.533 204.246 270.1 205.713L264.25 203.913C264.817 201.713 266.05 199.946 267.95 198.613C269.883 197.28 272.467 196.613 275.7 196.613C277.9 196.613 279.817 196.963 281.45 197.663C283.083 198.33 284.35 199.346 285.25 200.713C286.183 202.08 286.65 203.796 286.65 205.863V216.013C286.65 217.28 287.25 217.913 288.45 217.913C289.017 217.913 289.55 217.83 290.05 217.663L289.65 221.913C288.783 222.346 287.7 222.563 286.4 222.563C285.233 222.563 284.183 222.363 283.25 221.963C282.317 221.563 281.583 220.963 281.05 220.163C280.517 219.33 280.25 218.296 280.25 217.063V216.863L281.45 216.663C281.25 217.93 280.7 219.013 279.8 219.913C278.9 220.78 277.8 221.446 276.5 221.913C275.233 222.38 273.917 222.613 272.55 222.613C270.85 222.613 269.383 222.363 268.15 221.863C266.917 221.33 265.967 220.563 265.3 219.563C264.633 218.563 264.3 217.33 264.3 215.863C264.3 213.996 264.9 212.48 266.1 211.313C267.3 210.113 269.017 209.296 271.25 208.863L280.65 206.963L280.6 211.213L274.6 212.413C273.467 212.646 272.6 212.963 272 213.363C271.433 213.73 271.15 214.346 271.15 215.213C271.15 216.046 271.45 216.68 272.05 217.113C272.683 217.546 273.433 217.763 274.3 217.763C275 217.763 275.683 217.68 276.35 217.513C277.017 217.346 277.617 217.08 278.15 216.713C278.683 216.346 279.1 215.846 279.4 215.213C279.7 214.58 279.85 213.813 279.85 212.913V206.163ZM298.311 222.113V197.113H304.261L304.711 202.013C305.377 200.28 306.344 198.946 307.611 198.013C308.911 197.08 310.527 196.613 312.461 196.613C313.027 196.613 313.544 196.663 314.011 196.763C314.477 196.863 314.861 196.996 315.161 197.163L314.361 202.913C314.027 202.78 313.611 202.68 313.111 202.613C312.644 202.546 312.027 202.513 311.261 202.513C310.261 202.513 309.294 202.763 308.361 203.263C307.427 203.73 306.661 204.463 306.061 205.463C305.461 206.43 305.161 207.663 305.161 209.163V222.113H298.311ZM326.855 193.513C325.421 193.513 324.355 193.213 323.655 192.613C322.955 191.98 322.605 191.063 322.605 189.863C322.605 188.63 322.955 187.713 323.655 187.113C324.355 186.48 325.421 186.163 326.855 186.163C328.288 186.163 329.355 186.48 330.055 187.113C330.755 187.713 331.105 188.63 331.105 189.863C331.105 191.063 330.755 191.98 330.055 192.613C329.355 193.213 328.288 193.513 326.855 193.513ZM330.255 197.113V222.113H323.405V197.113H330.255ZM351.516 222.613C348.983 222.613 346.666 222.163 344.566 221.263C342.499 220.363 340.816 219.096 339.516 217.463L343.466 213.463C344.266 214.663 345.333 215.646 346.666 216.413C347.999 217.18 349.583 217.563 351.416 217.563C352.716 217.563 353.749 217.38 354.516 217.013C355.316 216.613 355.716 215.996 355.716 215.163C355.716 214.63 355.533 214.18 355.166 213.813C354.799 213.413 354.066 213.096 352.966 212.863L348.566 211.963C345.666 211.363 343.599 210.463 342.366 209.263C341.166 208.03 340.566 206.446 340.566 204.513C340.566 203.146 340.966 201.863 341.766 200.663C342.599 199.463 343.833 198.496 345.466 197.763C347.099 196.996 349.133 196.613 351.566 196.613C354.066 196.613 356.233 197.013 358.066 197.813C359.933 198.58 361.399 199.73 362.466 201.263L358.366 205.263C357.633 204.096 356.666 203.213 355.466 202.613C354.299 201.98 353.066 201.663 351.766 201.663C350.833 201.663 350.033 201.763 349.366 201.963C348.699 202.163 348.199 202.446 347.866 202.813C347.533 203.146 347.366 203.58 347.366 204.113C347.366 204.646 347.599 205.113 348.066 205.513C348.533 205.88 349.383 206.196 350.616 206.463L355.716 207.513C358.183 208.013 359.949 208.863 361.016 210.063C362.083 211.23 362.616 212.646 362.616 214.313C362.616 215.913 362.183 217.346 361.316 218.613C360.483 219.846 359.233 220.83 357.566 221.563C355.933 222.263 353.916 222.613 351.516 222.613ZM380.928 189.463V213.963C380.928 215.163 381.228 216.046 381.828 216.613C382.462 217.146 383.312 217.413 384.378 217.413C385.212 217.413 385.945 217.296 386.578 217.063C387.212 216.796 387.778 216.446 388.278 216.013L389.378 220.563C388.578 221.196 387.578 221.696 386.378 222.063C385.178 222.43 383.912 222.613 382.578 222.613C380.912 222.613 379.428 222.363 378.128 221.863C376.862 221.363 375.862 220.563 375.128 219.463C374.428 218.363 374.078 216.896 374.078 215.063V191.363L380.928 189.463ZM388.928 197.113V202.213H369.478V197.113H388.928ZM408.963 196.613C411.496 196.613 413.713 197.13 415.613 198.163C417.546 199.196 419.046 200.68 420.113 202.613C421.213 204.546 421.763 206.88 421.763 209.613C421.763 212.313 421.213 214.646 420.113 216.613C419.046 218.546 417.546 220.03 415.613 221.063C413.713 222.096 411.496 222.613 408.963 222.613C406.463 222.613 404.246 222.096 402.313 221.063C400.379 220.03 398.863 218.546 397.763 216.613C396.696 214.646 396.163 212.313 396.163 209.613C396.163 206.88 396.696 204.546 397.763 202.613C398.863 200.68 400.379 199.196 402.313 198.163C404.246 197.13 406.463 196.613 408.963 196.613ZM408.963 201.713C407.696 201.713 406.613 202.013 405.713 202.613C404.846 203.18 404.179 204.046 403.713 205.213C403.246 206.38 403.013 207.846 403.013 209.613C403.013 211.38 403.246 212.846 403.713 214.013C404.179 215.18 404.846 216.063 405.713 216.663C406.613 217.23 407.696 217.513 408.963 217.513C410.196 217.513 411.246 217.23 412.113 216.663C413.013 216.063 413.696 215.18 414.163 214.013C414.629 212.846 414.863 211.38 414.863 209.613C414.863 207.846 414.629 206.38 414.163 205.213C413.696 204.046 413.013 203.18 412.113 202.613C411.246 202.013 410.196 201.713 408.963 201.713ZM442.844 196.613C445.078 196.613 446.961 196.946 448.494 197.613C450.061 198.246 451.311 199.13 452.244 200.263C453.211 201.363 453.894 202.596 454.294 203.963L447.894 206.263C447.561 204.763 446.994 203.63 446.194 202.863C445.394 202.096 444.311 201.713 442.944 201.713C441.678 201.713 440.594 202.013 439.694 202.613C438.794 203.18 438.111 204.063 437.644 205.263C437.178 206.43 436.944 207.896 436.944 209.663C436.944 211.43 437.178 212.896 437.644 214.063C438.144 215.23 438.844 216.096 439.744 216.663C440.678 217.23 441.761 217.513 442.994 217.513C443.994 217.513 444.844 217.346 445.544 217.013C446.244 216.646 446.811 216.13 447.244 215.463C447.711 214.796 448.028 213.996 448.194 213.063L454.394 215.063C454.028 216.563 453.344 217.88 452.344 219.013C451.344 220.146 450.061 221.03 448.494 221.663C446.928 222.296 445.111 222.613 443.044 222.613C440.478 222.613 438.211 222.096 436.244 221.063C434.278 220.03 432.761 218.546 431.694 216.613C430.628 214.68 430.094 212.346 430.094 209.613C430.094 206.88 430.628 204.546 431.694 202.613C432.761 200.68 434.261 199.196 436.194 198.163C438.128 197.13 440.344 196.613 442.844 196.613ZM463.717 222.113V197.113H469.667L470.117 202.013C470.784 200.28 471.75 198.946 473.017 198.013C474.317 197.08 475.934 196.613 477.867 196.613C478.434 196.613 478.95 196.663 479.417 196.763C479.884 196.863 480.267 196.996 480.567 197.163L479.767 202.913C479.434 202.78 479.017 202.68 478.517 202.613C478.05 202.546 477.434 202.513 476.667 202.513C475.667 202.513 474.7 202.763 473.767 203.263C472.834 203.73 472.067 204.463 471.467 205.463C470.867 206.43 470.567 207.663 470.567 209.163V222.113H463.717ZM502.621 206.163C502.621 204.73 502.205 203.613 501.371 202.813C500.571 202.013 499.505 201.613 498.171 201.613C496.938 201.613 495.855 201.93 494.921 202.563C493.988 203.196 493.305 204.246 492.871 205.713L487.021 203.913C487.588 201.713 488.821 199.946 490.721 198.613C492.655 197.28 495.238 196.613 498.471 196.613C500.671 196.613 502.588 196.963 504.221 197.663C505.855 198.33 507.121 199.346 508.021 200.713C508.955 202.08 509.421 203.796 509.421 205.863V216.013C509.421 217.28 510.021 217.913 511.221 217.913C511.788 217.913 512.321 217.83 512.821 217.663L512.421 221.913C511.555 222.346 510.471 222.563 509.171 222.563C508.005 222.563 506.955 222.363 506.021 221.963C505.088 221.563 504.355 220.963 503.821 220.163C503.288 219.33 503.021 218.296 503.021 217.063V216.863L504.221 216.663C504.021 217.93 503.471 219.013 502.571 219.913C501.671 220.78 500.571 221.446 499.271 221.913C498.005 222.38 496.688 222.613 495.321 222.613C493.621 222.613 492.155 222.363 490.921 221.863C489.688 221.33 488.738 220.563 488.071 219.563C487.405 218.563 487.071 217.33 487.071 215.863C487.071 213.996 487.671 212.48 488.871 211.313C490.071 210.113 491.788 209.296 494.021 208.863L503.421 206.963L503.371 211.213L497.371 212.413C496.238 212.646 495.371 212.963 494.771 213.363C494.205 213.73 493.921 214.346 493.921 215.213C493.921 216.046 494.221 216.68 494.821 217.113C495.455 217.546 496.205 217.763 497.071 217.763C497.771 217.763 498.455 217.68 499.121 217.513C499.788 217.346 500.388 217.08 500.921 216.713C501.455 216.346 501.871 215.846 502.171 215.213C502.471 214.58 502.621 213.813 502.621 212.913V206.163ZM528.956 189.463V213.963C528.956 215.163 529.256 216.046 529.856 216.613C530.489 217.146 531.339 217.413 532.406 217.413C533.239 217.413 533.972 217.296 534.606 217.063C535.239 216.796 535.806 216.446 536.306 216.013L537.406 220.563C536.606 221.196 535.606 221.696 534.406 222.063C533.206 222.43 531.939 222.613 530.606 222.613C528.939 222.613 527.456 222.363 526.156 221.863C524.889 221.363 523.889 220.563 523.156 219.463C522.456 218.363 522.106 216.896 522.106 215.063V191.363L528.956 189.463ZM536.956 197.113V202.213H517.506V197.113H536.956Z" fill="white"/>
<path fill-rule="evenodd" clip-rule="evenodd" d="M399.846 40.887L336.589 149.742L352.821 166.112C358.283 157.023 375.269 139.009 399.508 139.67C427.233 140.426 438.121 154.675 445.047 163.738L445.048 163.738C445.69 164.579 446.299 165.376 446.884 166.112L463.41 149.742C454.091 135.505 424.408 109.537 380.227 119.563L399.845 85.9055L412.831 108.184H438.952L399.975 41.1107V41.1101L399.846 40.887Z" fill="#FFD369"/>
</svg>
