<svg width="276" height="194" viewBox="0 0 276 194" fill="none" xmlns="http://www.w3.org/2000/svg">
<path d="M17.8499 165.826C17.8499 164.393 17.4332 163.276 16.5999 162.476C15.7999 161.676 14.7332 161.276 13.3999 161.276C12.1665 161.276 11.0832 161.593 10.1499 162.226C9.21655 162.859 8.53321 163.909 8.09988 165.376L2.24988 163.576C2.81654 161.376 4.04988 159.609 5.94988 158.276C7.88321 156.943 10.4665 156.276 13.6999 156.276C15.8999 156.276 17.8165 156.626 19.4499 157.326C21.0832 157.993 22.3499 159.009 23.2499 160.376C24.1832 161.743 24.6499 163.459 24.6499 165.526V175.676C24.6499 176.943 25.2499 177.576 26.4499 177.576C27.0165 177.576 27.5499 177.493 28.0499 177.326L27.6499 181.576C26.7832 182.009 25.6999 182.226 24.3999 182.226C23.2332 182.226 22.1832 182.026 21.2499 181.626C20.3165 181.226 19.5832 180.626 19.0499 179.826C18.5165 178.993 18.2499 177.959 18.2499 176.726V176.526L19.4499 176.326C19.2499 177.593 18.6999 178.676 17.7999 179.576C16.8999 180.443 15.7999 181.109 14.4999 181.576C13.2332 182.043 11.9165 182.276 10.5499 182.276C8.84988 182.276 7.38321 182.026 6.14988 181.526C4.91654 180.993 3.96654 180.226 3.29988 179.226C2.63321 178.226 2.29988 176.993 2.29988 175.526C2.29988 173.659 2.89988 172.143 4.09988 170.976C5.29988 169.776 7.01654 168.959 9.24988 168.526L18.6499 166.626L18.5999 170.876L12.5999 172.076C11.4665 172.309 10.5999 172.626 9.99988 173.026C9.43321 173.393 9.14988 174.009 9.14988 174.876C9.14988 175.709 9.44988 176.343 10.0499 176.776C10.6832 177.209 11.4332 177.426 12.2999 177.426C12.9999 177.426 13.6832 177.343 14.3499 177.176C15.0165 177.009 15.6165 176.743 16.1499 176.376C16.6832 176.009 17.0999 175.509 17.3999 174.876C17.6999 174.243 17.8499 173.476 17.8499 172.576V165.826ZM36.3108 181.776V156.776H42.2608L42.7108 161.676C43.3775 159.943 44.3441 158.609 45.6108 157.676C46.9108 156.743 48.5275 156.276 50.4608 156.276C51.0275 156.276 51.5441 156.326 52.0108 156.426C52.4775 156.526 52.8608 156.659 53.1608 156.826L52.3608 162.576C52.0275 162.443 51.6108 162.343 51.1108 162.276C50.6441 162.209 50.0275 162.176 49.2608 162.176C48.2608 162.176 47.2941 162.426 46.3608 162.926C45.4275 163.393 44.6608 164.126 44.0608 165.126C43.4608 166.093 43.1608 167.326 43.1608 168.826V181.776H36.3108ZM64.8546 153.176C63.4212 153.176 62.3546 152.876 61.6546 152.276C60.9546 151.643 60.6046 150.726 60.6046 149.526C60.6046 148.293 60.9546 147.376 61.6546 146.776C62.3546 146.143 63.4212 145.826 64.8546 145.826C66.2879 145.826 67.3546 146.143 68.0546 146.776C68.7546 147.376 69.1046 148.293 69.1046 149.526C69.1046 150.726 68.7546 151.643 68.0546 152.276C67.3546 152.876 66.2879 153.176 64.8546 153.176ZM68.2546 156.776V181.776H61.4046V156.776H68.2546ZM89.5159 182.276C86.9826 182.276 84.6659 181.826 82.5659 180.926C80.4992 180.026 78.8159 178.759 77.5159 177.126L81.4659 173.126C82.2659 174.326 83.3326 175.309 84.6659 176.076C85.9992 176.843 87.5826 177.226 89.4159 177.226C90.7159 177.226 91.7492 177.043 92.5159 176.676C93.3159 176.276 93.7159 175.659 93.7159 174.826C93.7159 174.293 93.5326 173.843 93.1659 173.476C92.7992 173.076 92.0659 172.759 90.9659 172.526L86.5659 171.626C83.6659 171.026 81.5992 170.126 80.3659 168.926C79.1659 167.693 78.5659 166.109 78.5659 164.176C78.5659 162.809 78.9659 161.526 79.7659 160.326C80.5992 159.126 81.8326 158.159 83.4659 157.426C85.0992 156.659 87.1326 156.276 89.5659 156.276C92.0659 156.276 94.2326 156.676 96.0659 157.476C97.9326 158.243 99.3992 159.393 100.466 160.926L96.3659 164.926C95.6326 163.759 94.6659 162.876 93.4659 162.276C92.2992 161.643 91.0659 161.326 89.7659 161.326C88.8326 161.326 88.0326 161.426 87.3659 161.626C86.6992 161.826 86.1992 162.109 85.8659 162.476C85.5326 162.809 85.3659 163.243 85.3659 163.776C85.3659 164.309 85.5992 164.776 86.0659 165.176C86.5326 165.543 87.3826 165.859 88.6159 166.126L93.7159 167.176C96.1826 167.676 97.9492 168.526 99.0159 169.726C100.083 170.893 100.616 172.309 100.616 173.976C100.616 175.576 100.183 177.009 99.3159 178.276C98.4826 179.509 97.2326 180.493 95.5659 181.226C93.9326 181.926 91.9159 182.276 89.5159 182.276ZM118.928 149.126V173.626C118.928 174.826 119.228 175.709 119.828 176.276C120.462 176.809 121.312 177.076 122.378 177.076C123.212 177.076 123.945 176.959 124.578 176.726C125.212 176.459 125.778 176.109 126.278 175.676L127.378 180.226C126.578 180.859 125.578 181.359 124.378 181.726C123.178 182.093 121.912 182.276 120.578 182.276C118.912 182.276 117.428 182.026 116.128 181.526C114.862 181.026 113.862 180.226 113.128 179.126C112.428 178.026 112.078 176.559 112.078 174.726V151.026L118.928 149.126ZM126.928 156.776V161.876H107.478V156.776H126.928ZM146.963 156.276C149.496 156.276 151.713 156.793 153.613 157.826C155.546 158.859 157.046 160.343 158.113 162.276C159.213 164.209 159.763 166.543 159.763 169.276C159.763 171.976 159.213 174.309 158.113 176.276C157.046 178.209 155.546 179.693 153.613 180.726C151.713 181.759 149.496 182.276 146.963 182.276C144.463 182.276 142.246 181.759 140.313 180.726C138.379 179.693 136.863 178.209 135.763 176.276C134.696 174.309 134.163 171.976 134.163 169.276C134.163 166.543 134.696 164.209 135.763 162.276C136.863 160.343 138.379 158.859 140.313 157.826C142.246 156.793 144.463 156.276 146.963 156.276ZM146.963 161.376C145.696 161.376 144.613 161.676 143.713 162.276C142.846 162.843 142.179 163.709 141.713 164.876C141.246 166.043 141.013 167.509 141.013 169.276C141.013 171.043 141.246 172.509 141.713 173.676C142.179 174.843 142.846 175.726 143.713 176.326C144.613 176.893 145.696 177.176 146.963 177.176C148.196 177.176 149.246 176.893 150.113 176.326C151.013 175.726 151.696 174.843 152.163 173.676C152.629 172.509 152.863 171.043 152.863 169.276C152.863 167.509 152.629 166.043 152.163 164.876C151.696 163.709 151.013 162.843 150.113 162.276C149.246 161.676 148.196 161.376 146.963 161.376ZM180.844 156.276C183.078 156.276 184.961 156.609 186.494 157.276C188.061 157.909 189.311 158.793 190.244 159.926C191.211 161.026 191.894 162.259 192.294 163.626L185.894 165.926C185.561 164.426 184.994 163.293 184.194 162.526C183.394 161.759 182.311 161.376 180.944 161.376C179.678 161.376 178.594 161.676 177.694 162.276C176.794 162.843 176.111 163.726 175.644 164.926C175.178 166.093 174.944 167.559 174.944 169.326C174.944 171.093 175.178 172.559 175.644 173.726C176.144 174.893 176.844 175.759 177.744 176.326C178.678 176.893 179.761 177.176 180.994 177.176C181.994 177.176 182.844 177.009 183.544 176.676C184.244 176.309 184.811 175.793 185.244 175.126C185.711 174.459 186.028 173.659 186.194 172.726L192.394 174.726C192.028 176.226 191.344 177.543 190.344 178.676C189.344 179.809 188.061 180.693 186.494 181.326C184.928 181.959 183.111 182.276 181.044 182.276C178.478 182.276 176.211 181.759 174.244 180.726C172.278 179.693 170.761 178.209 169.694 176.276C168.628 174.343 168.094 172.009 168.094 169.276C168.094 166.543 168.628 164.209 169.694 162.276C170.761 160.343 172.261 158.859 174.194 157.826C176.128 156.793 178.344 156.276 180.844 156.276ZM201.717 181.776V156.776H207.667L208.117 161.676C208.784 159.943 209.75 158.609 211.017 157.676C212.317 156.743 213.934 156.276 215.867 156.276C216.434 156.276 216.95 156.326 217.417 156.426C217.884 156.526 218.267 156.659 218.567 156.826L217.767 162.576C217.434 162.443 217.017 162.343 216.517 162.276C216.05 162.209 215.434 162.176 214.667 162.176C213.667 162.176 212.7 162.426 211.767 162.926C210.834 163.393 210.067 164.126 209.467 165.126C208.867 166.093 208.567 167.326 208.567 168.826V181.776H201.717ZM240.621 165.826C240.621 164.393 240.205 163.276 239.371 162.476C238.571 161.676 237.505 161.276 236.171 161.276C234.938 161.276 233.855 161.593 232.921 162.226C231.988 162.859 231.305 163.909 230.871 165.376L225.021 163.576C225.588 161.376 226.821 159.609 228.721 158.276C230.655 156.943 233.238 156.276 236.471 156.276C238.671 156.276 240.588 156.626 242.221 157.326C243.855 157.993 245.121 159.009 246.021 160.376C246.955 161.743 247.421 163.459 247.421 165.526V175.676C247.421 176.943 248.021 177.576 249.221 177.576C249.788 177.576 250.321 177.493 250.821 177.326L250.421 181.576C249.555 182.009 248.471 182.226 247.171 182.226C246.005 182.226 244.955 182.026 244.021 181.626C243.088 181.226 242.355 180.626 241.821 179.826C241.288 178.993 241.021 177.959 241.021 176.726V176.526L242.221 176.326C242.021 177.593 241.471 178.676 240.571 179.576C239.671 180.443 238.571 181.109 237.271 181.576C236.005 182.043 234.688 182.276 233.321 182.276C231.621 182.276 230.155 182.026 228.921 181.526C227.688 180.993 226.738 180.226 226.071 179.226C225.405 178.226 225.071 176.993 225.071 175.526C225.071 173.659 225.671 172.143 226.871 170.976C228.071 169.776 229.788 168.959 232.021 168.526L241.421 166.626L241.371 170.876L235.371 172.076C234.238 172.309 233.371 172.626 232.771 173.026C232.205 173.393 231.921 174.009 231.921 174.876C231.921 175.709 232.221 176.343 232.821 176.776C233.455 177.209 234.205 177.426 235.071 177.426C235.771 177.426 236.455 177.343 237.121 177.176C237.788 177.009 238.388 176.743 238.921 176.376C239.455 176.009 239.871 175.509 240.171 174.876C240.471 174.243 240.621 173.476 240.621 172.576V165.826ZM266.956 149.126V173.626C266.956 174.826 267.256 175.709 267.856 176.276C268.489 176.809 269.339 177.076 270.406 177.076C271.239 177.076 271.972 176.959 272.606 176.726C273.239 176.459 273.806 176.109 274.306 175.676L275.406 180.226C274.606 180.859 273.606 181.359 272.406 181.726C271.206 182.093 269.939 182.276 268.606 182.276C266.939 182.276 265.456 182.026 264.156 181.526C262.889 181.026 261.889 180.226 261.156 179.126C260.456 178.026 260.106 176.559 260.106 174.726V151.026L266.956 149.126ZM274.956 156.776V161.876H255.506V156.776H274.956Z" fill="white"/>
<path fill-rule="evenodd" clip-rule="evenodd" d="M137.846 0.550034L74.5895 109.405L90.8205 125.775C96.2835 116.686 113.269 98.6719 137.508 99.333C165.233 100.089 176.121 114.338 183.047 123.401L183.048 123.401C183.69 124.242 184.299 125.039 184.884 125.775L201.41 109.405C192.091 95.1676 162.408 69.1997 118.227 79.2258L137.845 45.5685L150.831 67.8473H176.952L137.975 0.773754V0.773144L137.846 0.550034Z" fill="#FFD369"/>
</svg>
